<svg width="17" height="18" viewBox="0 0 17 18" fill="none" xmlns="http://www.w3.org/2000/svg">
<path d="M9.10822 17.8672C8.64126 17.8669 8.17497 17.8318 7.71322 17.7622C5.69106 17.4424 3.83478 16.4531 2.44187 14.9527C1.04895 13.4523 0.200034 11.5277 0.031161 9.4874C-0.137712 7.44709 0.383233 5.40915 1.51052 3.70016C2.6378 1.99118 4.30615 0.710088 6.24822 0.0621959C6.45609 -0.00810486 6.67944 -0.0190508 6.89319 0.0305878C7.10694 0.0802265 7.30261 0.188483 7.45822 0.343196C7.62691 0.507416 7.74664 0.715295 7.80403 0.94362C7.86142 1.17195 7.85422 1.41173 7.78322 1.6362C7.51627 2.50345 7.39694 3.4094 7.43022 4.3162C7.50595 5.73835 7.94766 7.11684 8.71257 8.31816C9.47748 9.51948 10.5397 10.5029 11.7962 11.1732C12.9278 11.8165 14.2056 12.1584 15.5072 12.1662C15.7339 12.1693 15.9553 12.2344 16.1476 12.3544C16.3399 12.4745 16.4957 12.6448 16.598 12.847C16.7004 13.0492 16.7455 13.2756 16.7285 13.5016C16.7114 13.7276 16.6328 13.9447 16.5012 14.1292C15.6498 15.2899 14.5366 16.2333 13.252 16.8828C11.9674 17.5323 10.5477 17.8696 9.10822 17.8672ZM6.62822 1.0002C6.60609 1.00024 6.58413 1.00396 6.56322 1.0112C5.34752 1.41463 4.24424 2.09936 3.34313 3.00968C2.44203 3.92001 1.76856 5.0302 1.37752 6.24994C0.986485 7.46968 0.888925 8.76451 1.09278 10.0291C1.29664 11.2936 1.79615 12.4922 2.55068 13.5273C3.3052 14.5623 4.29343 15.4047 5.43495 15.9857C6.57647 16.5667 7.83904 16.8701 9.11993 16.8711C10.4008 16.872 11.6638 16.5706 12.8062 15.9913C13.9486 15.412 14.9381 14.5711 15.6942 13.5372C15.7184 13.5033 15.7325 13.4632 15.7348 13.4216C15.7371 13.38 15.7275 13.3386 15.7072 13.3022C15.6894 13.2623 15.6605 13.2283 15.624 13.2042C15.5875 13.1801 15.5449 13.1669 15.5012 13.1662C14.0328 13.1578 12.5911 12.7736 11.3132 12.0502C9.90481 11.2963 8.71514 10.1911 7.8596 8.84204C7.00406 7.49293 6.51168 5.94563 6.43022 4.3502C6.39426 3.33221 6.52947 2.31541 6.83022 1.3422C6.84508 1.29285 6.84652 1.24043 6.8344 1.19033C6.82227 1.14024 6.79701 1.09428 6.76122 1.0572C6.7442 1.03901 6.72359 1.02455 6.7007 1.01474C6.67781 1.00493 6.65313 0.999978 6.62822 1.0002Z" fill="white"/>
</svg>
