<svg width="24" height="24" viewBox="0 0 24 24" fill="none" xmlns="http://www.w3.org/2000/svg">
<path d="M23.0261 17.4712V20.7831C23.0273 21.0906 22.9642 21.3949 22.8408 21.6766C22.7174 21.9583 22.5364 22.2112 22.3094 22.419C22.0823 22.6269 21.8143 22.7851 21.5225 22.8836C21.2307 22.9821 20.9215 23.0187 20.6146 22.991C17.2108 22.6219 13.9412 21.4611 11.0685 19.6019C8.39587 17.9069 6.12992 15.6455 4.4316 12.9781C2.56218 10.0981 1.3988 6.81909 1.03571 3.40674C1.00807 3.10146 1.04442 2.79378 1.14246 2.50329C1.24049 2.2128 1.39806 1.94586 1.60512 1.71947C1.81219 1.49308 2.06422 1.31221 2.34517 1.18836C2.62611 1.06451 2.92982 1.0004 3.23696 1.00011H6.55542C7.09224 0.994834 7.61267 1.18456 8.0197 1.53391C8.42674 1.88326 8.69259 2.36841 8.76773 2.89892C8.90779 3.9588 9.16755 4.99946 9.54204 6.00106C9.69086 6.39619 9.72307 6.82562 9.63485 7.23847C9.54663 7.65131 9.34167 8.03026 9.04427 8.33042L7.63945 9.73245C9.21412 12.4963 11.5071 14.7847 14.2764 16.3562L15.6812 14.9542C15.9819 14.6574 16.3616 14.4528 16.7753 14.3648C17.189 14.2767 17.6193 14.3089 18.0152 14.4574C19.0188 14.8312 20.0615 15.0904 21.1235 15.2302C21.6608 15.3058 22.1515 15.5759 22.5023 15.9892C22.8531 16.4024 23.0395 16.9298 23.0261 17.4712Z" stroke="white" stroke-linecap="round" stroke-linejoin="round"/>
</svg>
