<svg width="146" height="79" viewBox="0 0 146 79" fill="none" xmlns="http://www.w3.org/2000/svg">
<path d="M18.3735 17.3264C18.2275 16.0303 17.625 15.0263 16.5663 14.3143C15.5075 13.5933 14.1749 13.2328 12.5685 13.2328C11.4184 13.2328 10.4235 13.4153 9.58379 13.7804C8.74407 14.1364 8.09146 14.6292 7.62596 15.259C7.16959 15.8797 6.9414 16.5871 6.9414 17.3812C6.9414 18.0475 7.09657 18.6225 7.4069 19.1062C7.72636 19.59 8.14166 19.9962 8.65279 20.3248C9.17306 20.6442 9.72983 20.9135 10.3231 21.1325C10.9164 21.3425 11.4869 21.5159 12.0345 21.6528L14.7727 22.3647C15.6672 22.5838 16.5845 22.8804 17.5246 23.2547C18.4648 23.6289 19.3364 24.1218 20.1396 24.7333C20.9429 25.3448 21.5909 26.1024 22.0838 27.006C22.5858 27.9096 22.8368 28.9912 22.8368 30.2508C22.8368 31.839 22.4261 33.2492 21.6046 34.4814C20.7923 35.7136 19.6103 36.6857 18.0586 37.3976C16.5161 38.1095 14.6495 38.4655 12.4589 38.4655C10.3596 38.4655 8.54326 38.1323 7.00986 37.466C5.47645 36.7997 4.2762 35.8551 3.40909 34.632C2.54199 33.3998 2.0628 31.9394 1.97152 30.2508H6.21577C6.29792 31.264 6.62651 32.1083 7.20153 32.7837C7.78569 33.45 8.52957 33.9474 9.43319 34.276C10.3459 34.5955 11.3454 34.7552 12.4315 34.7552C13.6272 34.7552 14.6906 34.5681 15.6216 34.1939C16.5617 33.8105 17.301 33.2811 17.8395 32.6057C18.3781 31.9211 18.6473 31.1225 18.6473 30.2097C18.6473 29.3792 18.41 28.6992 17.9354 28.1698C17.4699 27.6404 16.8355 27.2023 16.0323 26.8554C15.2382 26.5086 14.3392 26.2028 13.3352 25.9381L10.0219 25.0345C7.77656 24.423 5.99671 23.5239 4.68237 22.3374C3.37714 21.1508 2.72453 19.5809 2.72453 17.6276C2.72453 16.012 3.16265 14.6019 4.03888 13.397C4.91511 12.1922 6.10168 11.2567 7.59858 10.5904C9.09547 9.91493 10.784 9.57722 12.6643 9.57722C14.5628 9.57722 16.2377 9.91037 17.6889 10.5767C19.1493 11.243 20.2994 12.1603 21.1391 13.3286C21.9788 14.4878 22.4169 15.8204 22.4534 17.3264H18.3735ZM26.5094 13.6024V9.96057H48.2099V13.6024H39.4613V38H35.2444V13.6024H26.5094ZM50.842 9.96057H55.6476L62.9723 22.707H63.2735L70.5983 9.96057H75.4039L65.2314 26.9923V38H61.0145V26.9923L50.842 9.96057ZM79.3983 38V9.96057H83.6288V34.3582H96.3342V38H79.3983ZM101.16 38V9.96057H118.74V13.6024H105.391V22.1457H117.822V25.7738H105.391V34.3582H118.904V38H101.16Z" fill="white"/>
<path d="M3.75779 72V51.2355H5.65377V62.4187H5.83627L15.9752 51.2355H18.4694L9.59782 60.837L18.4288 72H16.1172L8.4217 62.1551L5.65377 65.2576V72H3.75779ZM35.8881 51.2355H37.7841V64.9839C37.7841 66.3965 37.4528 67.6605 36.7904 68.7758C36.128 69.8843 35.2054 70.7597 34.0225 71.4018C32.8464 72.0372 31.4776 72.3549 29.9162 72.3549C28.3616 72.3549 26.9928 72.0338 25.81 71.3917C24.6271 70.7495 23.7045 69.8742 23.042 68.7657C22.3796 67.6572 22.0484 66.3965 22.0484 64.9839V51.2355H23.9444V64.8521C23.9444 65.9538 24.1911 66.9373 24.6846 67.8025C25.178 68.6609 25.8708 69.3368 26.763 69.8303C27.662 70.3237 28.7131 70.5704 29.9162 70.5704C31.1194 70.5704 32.1705 70.3237 33.0694 69.8303C33.9684 69.3368 34.6613 68.6609 35.1479 67.8025C35.6414 66.9373 35.8881 65.9538 35.8881 64.8521V51.2355ZM27.3207 48.5588C26.976 48.5588 26.6718 48.4304 26.4082 48.1735C26.1513 47.9099 26.0229 47.6057 26.0229 47.261C26.0229 46.896 26.1513 46.5885 26.4082 46.3384C26.6718 46.0883 26.976 45.9632 27.3207 45.9632C27.6924 45.9632 28 46.0883 28.2433 46.3384C28.4934 46.5885 28.6185 46.896 28.6185 47.261C28.6185 47.6057 28.4934 47.9099 28.2433 48.1735C28 48.4304 27.6924 48.5588 27.3207 48.5588ZM32.5118 48.5588C32.1671 48.5588 31.8629 48.4304 31.5993 48.1735C31.3425 47.9099 31.214 47.6057 31.214 47.261C31.214 46.896 31.3425 46.5885 31.5993 46.3384C31.8629 46.0883 32.1671 45.9632 32.5118 45.9632C32.8836 45.9632 33.1911 46.0883 33.4345 46.3384C33.6845 46.5885 33.8096 46.896 33.8096 47.261C33.8096 47.6057 33.6845 47.9099 33.4345 48.1735C33.1911 48.4304 32.8836 48.5588 32.5118 48.5588ZM59.5574 57.7244H57.6513C57.5093 57.0147 57.2525 56.359 56.8807 55.7574C56.5157 55.1491 56.0561 54.6185 55.5018 54.1656C54.9476 53.7127 54.319 53.3613 53.616 53.1112C52.913 52.8611 52.1526 52.736 51.3347 52.736C50.0234 52.736 48.827 53.0774 47.7456 53.7601C46.6708 54.4427 45.809 55.4465 45.1601 56.7713C44.518 58.0894 44.1969 59.7049 44.1969 61.6177C44.1969 63.5441 44.518 65.1664 45.1601 66.4844C45.809 67.8025 46.6708 68.8029 47.7456 69.4855C48.827 70.1615 50.0234 70.4994 51.3347 70.4994C52.1526 70.4994 52.913 70.3744 53.616 70.1243C54.319 69.8742 54.9476 69.5261 55.5018 69.08C56.0561 68.6271 56.5157 68.0965 56.8807 67.4882C57.2525 66.8798 57.5093 66.2208 57.6513 65.5111H59.5574C59.3884 66.4641 59.0707 67.353 58.6044 68.1776C58.1447 68.9955 57.5567 69.712 56.8402 70.3271C56.1305 70.9422 55.3126 71.4221 54.3866 71.7668C53.4605 72.1115 52.4433 72.2839 51.3347 72.2839C49.5908 72.2839 48.043 71.8479 46.6911 70.976C45.3392 70.0973 44.278 68.8603 43.5075 67.2651C42.7437 65.6699 42.3618 63.7875 42.3618 61.6177C42.3618 59.448 42.7437 57.5655 43.5075 55.9703C44.278 54.3752 45.3392 53.1416 46.6911 52.2696C48.043 51.3909 49.5908 50.9516 51.3347 50.9516C52.4433 50.9516 53.4605 51.1239 54.3866 51.4687C55.3126 51.8066 56.1305 52.2865 56.8402 52.9084C57.5567 53.5235 58.1447 54.24 58.6044 55.0578C59.0707 55.8757 59.3884 56.7646 59.5574 57.7244ZM64.0109 72V51.2355H65.9069V60.7559H77.6884V51.2355H79.5843V72H77.6884V62.4593H65.9069V72H64.0109ZM85.0898 72V51.2355H97.1348V52.9388H86.9858V60.7559H96.4961V62.4593H86.9858V70.2967H97.3376V72H85.0898ZM118.214 51.2355V72H116.368L104.1 54.6117H103.938V72H102.042V51.2355H103.877L116.186 68.644H116.348V51.2355H118.214Z" fill="white"/>
<path d="M143.39 12.9693C143.28 12.6331 143.136 12.3318 142.956 12.0655C142.779 11.7959 142.568 11.5662 142.322 11.3764C142.079 11.1867 141.802 11.0419 141.493 10.942C141.183 10.8421 140.844 10.7922 140.474 10.7922C139.868 10.7922 139.317 10.9487 138.821 11.2616C138.325 11.5745 137.931 12.0355 137.638 12.6447C137.345 13.2539 137.198 14.0013 137.198 14.8868C137.198 15.7723 137.347 16.5196 137.643 17.1288C137.939 17.738 138.34 18.199 138.846 18.512C139.352 18.8249 139.921 18.9813 140.554 18.9813C141.14 18.9813 141.656 18.8565 142.102 18.6068C142.551 18.3538 142.901 17.9977 143.151 17.5383C143.404 17.0755 143.53 16.5313 143.53 15.9054L143.91 15.9853H140.834V14.8868H144.728V15.9853C144.728 16.8275 144.549 17.5599 144.189 18.1824C143.833 18.8049 143.34 19.2876 142.711 19.6305C142.085 19.97 141.366 20.1398 140.554 20.1398C139.649 20.1398 138.853 19.9268 138.167 19.5007C137.485 19.0746 136.952 18.4687 136.569 17.6831C136.19 16.8974 136 15.9653 136 14.8868C136 14.0778 136.108 13.3505 136.325 12.7047C136.544 12.0555 136.854 11.5029 137.253 11.0469C137.653 10.5908 138.126 10.2413 138.671 9.99825C139.217 9.75523 139.818 9.63373 140.474 9.63373C141.013 9.63373 141.516 9.71529 141.982 9.8784C142.451 10.0382 142.869 10.2662 143.235 10.5625C143.605 10.8554 143.913 11.2066 144.159 11.6161C144.406 12.0222 144.575 12.4733 144.669 12.9693H143.39Z" fill="white"/>
<path d="M135.222 24H136.667L140.066 32.3008H140.183L143.581 24H145.027V34H143.894V26.4023H143.796L140.671 34H139.578L136.453 26.4023H136.355V34H135.222V24Z" fill="white"/>
<path d="M136 53V42.7735H139.575C140.288 42.7735 140.875 42.8967 141.338 43.1431C141.801 43.3861 142.145 43.714 142.372 44.1268C142.598 44.5362 142.711 44.9906 142.711 45.4899C142.711 45.9294 142.633 46.2922 142.476 46.5785C142.323 46.8648 142.12 47.0912 141.867 47.2576C141.618 47.4241 141.346 47.5472 141.053 47.6271V47.727C141.366 47.747 141.681 47.8568 141.997 48.0565C142.313 48.2563 142.578 48.5426 142.791 48.9154C143.004 49.2882 143.111 49.7443 143.111 50.2836C143.111 50.7963 142.994 51.2573 142.761 51.6668C142.528 52.0762 142.16 52.4008 141.658 52.6405C141.155 52.8802 140.501 53 139.695 53H136ZM137.238 51.9015H139.695C140.504 51.9015 141.078 51.745 141.418 51.4321C141.761 51.1158 141.932 50.733 141.932 50.2836C141.932 49.9374 141.844 49.6178 141.667 49.3249C141.491 49.0286 141.24 48.7922 140.913 48.6158C140.587 48.436 140.201 48.3462 139.755 48.3462H137.238V51.9015ZM137.238 47.2676H139.535C139.908 47.2676 140.244 47.1944 140.544 47.0479C140.847 46.9014 141.087 46.695 141.263 46.4287C141.443 46.1624 141.533 45.8495 141.533 45.4899C141.533 45.0405 141.376 44.6594 141.063 44.3465C140.75 44.0302 140.254 43.8721 139.575 43.8721H137.238V47.2676Z" fill="white"/>
<path d="M136 72V61.7735H137.238V66.3275H142.691V61.7735H143.929V72H142.691V67.4261H137.238V72H136Z" fill="white"/>
</svg>
