<svg width="137" height="60" viewBox="0 0 137 60" fill="none" xmlns="http://www.w3.org/2000/svg">
<path d="M135.405 3.87401C135.278 3.48831 135.111 3.1427 134.904 2.83719C134.7 2.52786 134.456 2.26436 134.172 2.04668C133.892 1.82901 133.574 1.66289 133.217 1.54832C132.86 1.43375 132.468 1.37647 132.042 1.37647C131.343 1.37647 130.708 1.55596 130.136 1.91493C129.564 2.27391 129.109 2.80282 128.772 3.50168C128.434 4.20053 128.265 5.05787 128.265 6.07369C128.265 7.08951 128.436 7.94684 128.777 8.6457C129.119 9.34455 129.582 9.87347 130.165 10.2324C130.748 10.5914 131.405 10.7709 132.134 10.7709C132.81 10.7709 133.405 10.6277 133.919 10.3413C134.437 10.051 134.84 9.64242 135.128 9.11542C135.42 8.5846 135.566 7.96021 135.566 7.24226L136.003 7.33391H132.457V6.07369H136.948V7.33391C136.948 8.30009 136.74 9.14024 136.326 9.85437C135.915 10.5685 135.347 11.1222 134.621 11.5156C133.9 11.9051 133.071 12.0999 132.134 12.0999C131.09 12.0999 130.173 11.8555 129.382 11.3666C128.595 10.8778 127.981 10.1828 127.539 9.28154C127.102 8.38029 126.883 7.311 126.883 6.07369C126.883 5.1457 127.008 4.31128 127.257 3.57041C127.511 2.82573 127.868 2.1918 128.328 1.66862C128.789 1.14543 129.334 0.744448 129.963 0.46567C130.593 0.186892 131.286 0.0475033 132.042 0.0475033C132.664 0.0475033 133.243 0.141066 133.781 0.32819C134.322 0.511496 134.804 0.773089 135.226 1.11297C135.652 1.44903 136.007 1.85192 136.291 2.32164C136.575 2.78755 136.771 3.305 136.879 3.87401H135.405Z" fill="white"/>
<path d="M16.1481 7.59028C16.0043 6.32076 15.4112 5.33733 14.3689 4.63999C13.3265 3.93371 12.0145 3.58057 10.4329 3.58057C9.30066 3.58057 8.32117 3.75938 7.49445 4.11699C6.66772 4.46566 6.02521 4.94843 5.56692 5.56531C5.11761 6.17325 4.89296 6.86612 4.89296 7.64392C4.89296 8.29656 5.04572 8.85979 5.35125 9.33363C5.66577 9.80746 6.07464 10.2053 6.57786 10.5272C7.09007 10.8401 7.63823 11.1038 8.22233 11.3184C8.80643 11.524 9.36806 11.6939 9.90723 11.828L12.6031 12.5253C13.4837 12.7399 14.3868 13.0304 15.3124 13.397C16.238 13.7635 17.0962 14.2463 17.8869 14.8453C18.6777 15.4443 19.3157 16.1863 19.801 17.0714C20.2952 17.9565 20.5423 19.0159 20.5423 20.2497C20.5423 21.8053 20.138 23.1866 19.3292 24.3935C18.5294 25.6004 17.3657 26.5526 15.8381 27.2499C14.3194 27.9472 12.4818 28.2959 10.3251 28.2959C8.25827 28.2959 6.47003 27.9696 4.96035 27.3169C3.45068 26.6643 2.269 25.739 1.41532 24.541C0.561634 23.3341 0.0898614 21.9036 0 20.2497H4.17856C4.25943 21.242 4.58294 22.069 5.14906 22.7306C5.72418 23.3832 6.45655 23.8705 7.34618 24.1923C8.24479 24.5052 9.22878 24.6617 10.2981 24.6617C11.4753 24.6617 12.5222 24.4784 13.4388 24.1119C14.3644 23.7364 15.0922 23.2178 15.6224 22.5563C16.1526 21.8857 16.4177 21.1035 16.4177 20.2094C16.4177 19.3959 16.1841 18.7298 15.7168 18.2113C15.2585 17.6928 14.6339 17.2636 13.8432 16.9239C13.0614 16.5842 12.1762 16.2847 11.1878 16.0254L7.92578 15.1403C5.71519 14.5413 3.96289 13.6607 2.66889 12.4985C1.38387 11.3362 0.741357 9.79852 0.741357 7.8853C0.741357 6.30288 1.17269 4.92161 2.03536 3.7415C2.89803 2.56138 4.06623 1.64501 5.53996 0.992369C7.01369 0.33079 8.67613 0 10.5273 0C12.3964 0 14.0454 0.326319 15.4741 0.978958C16.9119 1.6316 18.0442 2.53009 18.8709 3.67444C19.6976 4.80986 20.129 6.11513 20.1649 7.59028H16.1481Z" fill="white"/>
<path d="M24.1581 3.94265V0.375491H45.5227V3.94265H36.9095V27.84H32.7579V3.94265H24.1581Z" fill="white"/>
<path d="M48.1141 0.375491H52.8453L60.0567 12.8606H60.3532L67.5646 0.375491H72.2958L62.2808 17.058V27.84H58.1292V17.058L48.1141 0.375491Z" fill="white"/>
<path d="M76.2284 27.84V0.375491H80.3935V24.2728H92.9022V27.84H76.2284Z" fill="white"/>
<path d="M97.6536 27.84V0.375491H114.961V3.94265H101.819V12.3107H114.058V15.8645H101.819V24.2728H115.123V27.84H97.6536Z" fill="white"/>
<path d="M0.545407 59.6409V39.2128H3.03182V49.3471H3.27244L12.4962 39.2128H15.7446L7.12238 48.4294L15.7446 59.6409H12.7369L5.59845 50.145L3.03182 53.0177V59.6409H0.545407Z" fill="white"/>
<path d="M32.4377 39.2128H34.9241V52.7384C34.9241 54.1349 34.5933 55.3817 33.9316 56.4789C33.2765 57.5695 32.3508 58.4306 31.1544 59.0624C29.958 59.6875 28.5543 60 26.9435 60C25.3327 60 23.9291 59.6875 22.7327 59.0624C21.5362 58.4306 20.6072 57.5695 19.9455 56.4789C19.2904 55.3817 18.9629 54.1349 18.9629 52.7384V39.2128H21.4493V52.539C21.4493 53.5364 21.6699 54.4242 22.1111 55.2022C22.5522 55.9736 23.1805 56.582 23.9959 57.0275C24.818 57.4664 25.8006 57.6859 26.9435 57.6859C28.0865 57.6859 29.069 57.4664 29.8911 57.0275C30.7133 56.582 31.3415 55.9736 31.776 55.2022C32.2171 54.4242 32.4377 53.5364 32.4377 52.539V39.2128ZM24.0561 36.6593C23.635 36.6593 23.2607 36.4997 22.9332 36.1805C22.6123 35.8547 22.4519 35.4823 22.4519 35.0633C22.4519 34.6045 22.6123 34.2255 22.9332 33.9262C23.2607 33.6203 23.635 33.4674 24.0561 33.4674C24.5173 33.4674 24.8982 33.6203 25.199 33.9262C25.5065 34.2255 25.6602 34.6045 25.6602 35.0633C25.6602 35.4823 25.5065 35.8547 25.199 36.1805C24.8982 36.4997 24.5173 36.6593 24.0561 36.6593ZM29.831 36.6593C29.4099 36.6593 29.0356 36.4997 28.7081 36.1805C28.3872 35.8547 28.2268 35.4823 28.2268 35.0633C28.2268 34.6045 28.3872 34.2255 28.7081 33.9262C29.0356 33.6203 29.4099 33.4674 29.831 33.4674C30.2922 33.4674 30.6731 33.6203 30.9739 33.9262C31.2814 34.2255 31.4351 34.6045 31.4351 35.0633C31.4351 35.4823 31.2814 35.8547 30.9739 36.1805C30.6731 36.4997 30.2922 36.6593 29.831 36.6593Z" fill="white"/>
<path d="M56.4121 45.5966H53.9256C53.7786 44.8851 53.5213 44.26 53.1537 43.7213C52.7927 43.1827 52.3516 42.7305 51.8302 42.3648C51.3156 41.9924 50.7441 41.7131 50.1158 41.5269C49.4875 41.3407 48.8325 41.2476 48.1507 41.2476C46.9075 41.2476 45.7813 41.5602 44.772 42.1852C43.7694 42.8103 42.9707 43.7313 42.3758 44.9482C41.7877 46.1651 41.4936 47.658 41.4936 49.4269C41.4936 51.1957 41.7877 52.6886 42.3758 53.9055C42.9707 55.1224 43.7694 56.0434 44.772 56.6685C45.7813 57.2935 46.9075 57.6061 48.1507 57.6061C48.8325 57.6061 49.4875 57.513 50.1158 57.3268C50.7441 57.1406 51.3156 56.8646 51.8302 56.4989C52.3516 56.1265 52.7927 55.671 53.1537 55.1324C53.5213 54.5871 53.7786 53.962 53.9256 53.2571H56.4121C56.2249 54.3011 55.884 55.2354 55.3894 56.06C54.8948 56.8846 54.2799 57.5861 53.5447 58.1647C52.8094 58.7365 51.984 59.1721 51.0683 59.4713C50.1593 59.7706 49.1867 59.9202 48.1507 59.9202C46.3996 59.9202 44.8422 59.4946 43.4787 58.6434C42.1152 57.7923 41.0424 56.582 40.2604 55.0127C39.4784 53.4433 39.0874 51.5814 39.0874 49.4269C39.0874 47.2723 39.4784 45.4104 40.2604 43.841C41.0424 42.2717 42.1152 41.0614 43.4787 40.2103C44.8422 39.3591 46.3996 38.9335 48.1507 38.9335C49.1867 38.9335 50.1593 39.0831 51.0683 39.3824C51.984 39.6816 52.8094 40.1205 53.5447 40.699C54.2799 41.2709 54.8948 41.9691 55.3894 42.7937C55.884 43.6116 56.2249 44.5459 56.4121 45.5966Z" fill="white"/>
<path d="M60.4299 59.6409V39.2128H62.9163V48.3097H73.8646V39.2128H76.351V59.6409H73.8646V50.5041H62.9163V59.6409H60.4299Z" fill="white"/>
<path d="M81.3288 59.6409V39.2128H93.7208V41.4072H83.8153V48.3097H93.0792V50.5041H83.8153V57.4465H93.8812V59.6409H81.3288Z" fill="white"/>
<path d="M114.484 39.2128V59.6409H112.078L100.889 43.6017H100.689V59.6409H98.2024V39.2128H100.609L111.838 55.292H112.038V39.2128H114.484Z" fill="white"/>
<path d="M126.988 26.8462V19.2573H128.121V20.4431H128.22C128.379 20.0379 128.636 19.7234 128.99 19.4994C129.344 19.2721 129.769 19.1585 130.266 19.1585C130.769 19.1585 131.188 19.2721 131.522 19.4994C131.86 19.7234 132.123 20.0379 132.312 20.4431H132.392C132.587 20.0511 132.88 19.7398 133.271 19.5093C133.661 19.2754 134.13 19.1585 134.676 19.1585C135.358 19.1585 135.916 19.3709 136.349 19.7958C136.783 20.2174 137 20.8746 137 21.7672V26.8462H135.828V21.7672C135.828 21.2072 135.674 20.807 135.366 20.5666C135.058 20.3261 134.696 20.2059 134.279 20.2059C133.742 20.2059 133.327 20.3673 133.032 20.6901C132.737 21.0096 132.59 21.4147 132.59 21.9055V26.8462H131.398V21.6486C131.398 21.2171 131.258 20.8696 130.976 20.6061C130.695 20.3393 130.332 20.2059 129.889 20.2059C129.584 20.2059 129.299 20.2866 129.034 20.448C128.773 20.6094 128.561 20.8334 128.399 21.1199C128.24 21.4032 128.16 21.7309 128.16 22.1031V26.8462H126.988Z" fill="white"/>
<path d="M128.766 41.7529V31.6344H129.938V35.3695H130.037C130.123 35.2378 130.243 35.0698 130.395 34.8656C130.551 34.6581 130.772 34.4736 131.06 34.3122C131.352 34.1475 131.746 34.0652 132.242 34.0652C132.885 34.0652 133.451 34.2249 133.941 34.5444C134.431 34.8639 134.813 35.3168 135.088 35.9031C135.363 36.4894 135.5 37.1811 135.5 37.9782C135.5 38.7819 135.363 39.4785 135.088 40.0681C134.813 40.6544 134.432 41.1089 133.946 41.4317C133.459 41.7512 132.898 41.911 132.262 41.911C131.772 41.911 131.38 41.8303 131.085 41.6689C130.791 41.5042 130.564 41.3181 130.405 41.1106C130.246 40.8998 130.123 40.7252 130.037 40.5869H129.898V41.7529H128.766ZM129.918 37.9584C129.918 38.5316 130.003 39.0372 130.171 39.4752C130.34 39.91 130.587 40.2509 130.911 40.4979C131.236 40.7417 131.633 40.8636 132.103 40.8636C132.593 40.8636 133.002 40.7351 133.33 40.4782C133.661 40.218 133.909 39.8688 134.075 39.4308C134.244 38.9894 134.328 38.4986 134.328 37.9584C134.328 37.4248 134.245 36.944 134.08 36.5158C133.918 36.0843 133.671 35.7434 133.34 35.493C133.012 35.2394 132.6 35.1126 132.103 35.1126C131.626 35.1126 131.226 35.2328 130.901 35.4733C130.577 35.7104 130.332 36.0431 130.166 36.4713C130.001 36.8962 129.918 37.3919 129.918 37.9584Z" fill="white"/>
<path d="M127.344 59.6409V47.9107H128.771V53.1343H135.058V47.9107H136.486V59.6409H135.058V54.3944H128.771V59.6409H127.344Z" fill="white"/>
</svg>
