<svg width="22" height="22" viewBox="0 0 22 22" fill="none" xmlns="http://www.w3.org/2000/svg">
<path fill-rule="evenodd" clip-rule="evenodd" d="M2.80112 0.943362C4.17403 -0.49553 6.43476 -0.239859 7.5843 1.37979L9.00797 3.38234C9.9443 4.69994 9.86082 6.54077 8.74963 7.70497L8.48114 7.98799C8.4507 8.1068 8.4476 8.23155 8.47212 8.35187C8.54319 8.83705 8.92787 9.86449 10.5388 11.5531C12.1497 13.2417 13.1312 13.646 13.5982 13.7222C13.7159 13.7471 13.8375 13.7434 13.9536 13.7114L14.4139 13.2286C15.4021 12.1941 16.9183 12.0002 18.1411 12.7007L20.2958 13.9374C22.1425 14.9934 22.6084 17.6381 21.0968 19.2232L19.4937 20.9023C18.9883 21.4315 18.3092 21.8727 17.4812 21.9548C15.4393 22.1557 10.6821 21.8989 5.68118 16.6582C1.0142 11.766 0.118482 7.49924 0.0045429 5.39679C-0.0518625 4.33368 0.424199 3.43467 1.03112 2.79965L2.80112 0.943362ZM6.23057 2.44885C5.65862 1.64378 4.59368 1.57957 3.99353 2.20864L2.2224 4.06374C1.85013 4.45378 1.67189 4.88426 1.69445 5.29571C1.7847 6.96649 2.50669 10.8158 6.87472 15.3941C11.4571 20.196 15.6886 20.3399 17.3244 20.1781C17.6583 20.146 17.99 19.9629 18.3002 19.6383L19.9021 17.958C20.5542 17.2754 20.4109 16.0315 19.4881 15.5035L17.3334 14.268C16.7378 13.9279 16.0406 14.0397 15.6074 14.4939L15.0941 15.0326L14.4962 14.4C15.0941 15.0326 15.0919 15.0338 15.0919 15.0338L15.0907 15.0362L15.0873 15.0398L15.0794 15.0469L15.0625 15.0635C15.0149 15.1101 14.9636 15.1523 14.9091 15.1896C14.8189 15.2526 14.6993 15.3228 14.5492 15.381C14.2446 15.5011 13.8408 15.5654 13.3422 15.4845C12.3641 15.3263 11.0679 14.6235 9.34527 12.8184C7.62378 11.0132 6.95143 9.6552 6.80026 8.62538C6.72242 8.09977 6.78447 7.67405 6.89954 7.35297C6.96287 7.1723 7.05354 7.00363 7.16803 6.85352L7.20413 6.8119L7.21992 6.79406L7.22669 6.78693L7.23007 6.78336L7.23233 6.78098L7.55722 6.44088C8.04005 5.93311 8.10774 5.09237 7.65311 4.45141L6.23057 2.44885Z" fill="white"/>
</svg>
