<svg width="396" height="365" viewBox="0 0 396 365" fill="none" xmlns="http://www.w3.org/2000/svg">
<rect width="396" height="365" rx="80" fill="#D6C4AF"/>
<path d="M164.159 146.409C163.307 139.212 159.85 133.625 153.79 129.648C147.729 125.67 140.295 123.682 131.489 123.682C125.049 123.682 119.415 124.723 114.585 126.807C109.803 128.89 106.063 131.755 103.364 135.401C100.712 139.046 99.3864 143.189 99.3864 147.83C99.3864 151.712 100.31 155.05 102.156 157.844C104.05 160.59 106.465 162.886 109.401 164.733C112.336 166.532 115.414 168.024 118.634 169.207C121.853 170.344 124.812 171.267 127.511 171.977L142.284 175.955C146.072 176.949 150.286 178.322 154.926 180.074C159.614 181.826 164.088 184.217 168.349 187.247C172.658 190.23 176.209 194.065 179.003 198.753C181.796 203.44 183.193 209.193 183.193 216.011C183.193 223.871 181.134 230.973 177.014 237.318C172.942 243.663 166.976 248.705 159.116 252.446C151.304 256.187 141.811 258.057 130.636 258.057C120.22 258.057 111.2 256.376 103.577 253.014C96.0009 249.652 90.035 244.965 85.679 238.952C81.3703 232.938 78.9318 225.955 78.3636 218H96.5455C97.0189 223.492 98.8655 228.038 102.085 231.636C105.352 235.187 109.472 237.839 114.443 239.591C119.462 241.295 124.86 242.148 130.636 242.148C137.36 242.148 143.397 241.059 148.747 238.881C154.098 236.655 158.335 233.578 161.46 229.648C164.585 225.67 166.148 221.03 166.148 215.727C166.148 210.898 164.798 206.968 162.099 203.938C159.401 200.907 155.849 198.445 151.446 196.551C147.043 194.657 142.284 193 137.17 191.58L119.273 186.466C107.909 183.199 98.9129 178.535 92.2841 172.474C85.6553 166.414 82.3409 158.483 82.3409 148.682C82.3409 140.538 84.5426 133.436 88.946 127.375C93.3968 121.267 99.3627 116.532 106.844 113.17C114.372 109.761 122.777 108.057 132.057 108.057C141.432 108.057 149.765 109.738 157.057 113.099C164.348 116.414 170.125 120.959 174.386 126.736C178.695 132.512 180.968 139.07 181.205 146.409H164.159Z" fill="black"/>
<path d="M212.614 255.5V110.045H230.227V182.205H231.932L297.273 110.045H320.284L259.205 175.67L320.284 255.5H298.977L248.409 187.886L230.227 208.341V255.5H212.614Z" fill="black"/>
</svg>
