<svg width="40" height="40" viewBox="0 0 40 40" fill="none" xmlns="http://www.w3.org/2000/svg">
<rect width="40" height="40" rx="10" fill="url(#paint0_linear_2027_40)"/>
<path d="M16.8466 16.6818C16.7741 15.9531 16.4524 15.3736 15.8814 14.9432C15.3104 14.5128 14.5923 14.2976 13.7273 14.2976C13.1179 14.2976 12.581 14.402 12.1165 14.6108C11.6563 14.8196 11.294 15.1094 11.0298 15.4801C10.7699 15.8466 10.6399 16.2642 10.6399 16.733C10.6399 17.0781 10.7145 17.3807 10.8636 17.6406C11.0128 17.9006 11.2131 18.1243 11.4645 18.3118C11.7202 18.495 12.0014 18.6527 12.3082 18.7848C12.6193 18.9169 12.9325 19.0277 13.2479 19.1172L14.6286 19.5135C15.0462 19.6286 15.4638 19.7756 15.8814 19.9545C16.299 20.1335 16.6804 20.3594 17.0256 20.6321C17.375 20.9006 17.6541 21.2308 17.8629 21.6229C18.076 22.0107 18.1825 22.4773 18.1825 23.0227C18.1825 23.7216 18.0014 24.3501 17.6392 24.9084C17.277 25.4666 16.7571 25.9098 16.0795 26.2379C15.402 26.5618 14.5902 26.7237 13.6442 26.7237C12.7536 26.7237 11.9801 26.5767 11.3239 26.2827C10.6676 25.9844 10.152 25.5732 9.77699 25.049C9.40199 24.5249 9.19105 23.9176 9.14418 23.2273H10.3714C10.4141 23.7429 10.5845 24.1797 10.8828 24.5376C11.1811 24.8956 11.5689 25.1683 12.0462 25.3558C12.5234 25.5391 13.0561 25.6307 13.6442 25.6307C14.2962 25.6307 14.8757 25.522 15.3828 25.3047C15.8942 25.0831 16.2947 24.7763 16.5845 24.3842C16.8786 23.9879 17.0256 23.5277 17.0256 23.0036C17.0256 22.5604 16.9105 22.1896 16.6804 21.8913C16.4503 21.5888 16.1286 21.3352 15.7152 21.1307C15.3061 20.9261 14.831 20.745 14.2898 20.5874L12.7237 20.1271C11.6967 19.8203 10.8999 19.3963 10.3331 18.8551C9.76634 18.3139 9.48295 17.6236 9.48295 16.7841C9.48295 16.081 9.67045 15.4631 10.0455 14.9304C10.4247 14.3935 10.9361 13.9759 11.5795 13.6776C12.2273 13.375 12.9538 13.2237 13.7592 13.2237C14.5732 13.2237 15.2933 13.3729 15.9197 13.6712C16.5462 13.9695 17.0426 14.3807 17.4091 14.9048C17.7798 15.4247 17.978 16.017 18.0036 16.6818H16.8466ZM21.9589 26.5V13.4091H23.1543V20.4595H23.2693L29.6614 13.4091H31.2338L25.6408 19.4624L31.2082 26.5H29.7509L24.8993 20.2933L23.1543 22.2493V26.5H21.9589Z" fill="black"/>
<defs>
<linearGradient id="paint0_linear_2027_40" x1="20" y1="40" x2="20" y2="0" gradientUnits="userSpaceOnUse">
<stop stop-color="#654444"/>
<stop offset="1" stop-color="#E5BE91"/>
</linearGradient>
</defs>
</svg>
