<svg aria-hidden="true" style="position: absolute; width: 0; height: 0; overflow: hidden;" version="1.1" xmlns="http://www.w3.org/2000/svg" xmlns:xlink="http://www.w3.org/1999/xlink">
<defs>
<symbol id="icon-garantee" viewBox="0 0 32 32">
<path stroke-linejoin="round" stroke-linecap="round" stroke-miterlimit="4" stroke-width="1.5" d="M26.667 17.333c0 6.667-4.667 10-10.213 11.933-0.291 0.098-0.606 0.094-0.893-0.013-5.56-1.92-10.227-5.253-10.227-11.92v-9.333c0-0.354 0.14-0.693 0.391-0.943s0.589-0.391 0.943-0.391c2.667 0 6-1.6 8.32-3.627 0.283-0.241 0.642-0.374 1.013-0.374s0.731 0.133 1.013 0.374c2.333 2.040 5.653 3.627 8.32 3.627 0.354 0 0.693 0.14 0.943 0.391s0.39 0.589 0.39 0.943v9.333z"></path>
<path stroke-linejoin="round" stroke-linecap="round" stroke-miterlimit="4" stroke-width="1.5" d="M12 16l2.667 2.667 5.333-5.333"></path>
</symbol>
<symbol id="icon-pancil" viewBox="0 0 32 32">
<path stroke-linejoin="round" stroke-linecap="round" stroke-miterlimit="4" stroke-width="2" d="M17.333 9.333l-5.733-5.733c-0.602-0.599-1.417-0.936-2.267-0.936s-1.665 0.336-2.267 0.936l-3.467 3.467c-0.599 0.602-0.936 1.417-0.936 2.267s0.336 1.665 0.936 2.267l5.733 5.733"></path>
<path stroke-linejoin="round" stroke-linecap="round" stroke-miterlimit="4" stroke-width="2" d="M10.667 8l2.667-2.667"></path>
<path stroke-linejoin="round" stroke-linecap="round" stroke-miterlimit="4" stroke-width="2" d="M24 21.333l2.667-2.667"></path>
<path stroke-linejoin="round" stroke-linecap="round" stroke-miterlimit="4" stroke-width="2" d="M22.667 14.667l5.733 5.733c1.253 1.253 1.253 3.28 0 4.533l-3.467 3.467c-1.253 1.253-3.28 1.253-4.533 0l-5.733-5.733"></path>
<path stroke-linejoin="round" stroke-linecap="round" stroke-miterlimit="4" stroke-width="2" d="M28.232 9.083c0.705-0.705 1.101-1.661 1.101-2.658s-0.396-1.953-1.1-2.658c-0.705-0.705-1.661-1.101-2.658-1.101s-1.953 0.396-2.658 1.1l-17.795 17.799c-0.31 0.309-0.539 0.689-0.667 1.107l-1.761 5.803c-0.034 0.115-0.037 0.238-0.008 0.355s0.090 0.223 0.175 0.308c0.085 0.085 0.192 0.145 0.308 0.175s0.239 0.027 0.354-0.008l5.804-1.76c0.418-0.127 0.798-0.355 1.107-0.663l17.796-17.799z"></path>
<path stroke-linejoin="round" stroke-linecap="round" stroke-miterlimit="4" stroke-width="2" d="M20 6.667l5.333 5.333"></path>
</symbol>
<symbol id="icon-phone-logo" viewBox="0 0 32 32">
<path stroke-linejoin="round" stroke-linecap="round" stroke-miterlimit="4" stroke-width="1.3333" d="M30.701 23.295v4.416c0.002 0.41-0.083 0.816-0.247 1.191s-0.406 0.713-0.709 0.99c-0.303 0.277-0.66 0.488-1.049 0.619s-0.801 0.18-1.211 0.143c-4.538-0.492-8.898-2.040-12.728-4.519-3.563-2.26-6.585-5.275-8.849-8.832-2.493-3.84-4.044-8.212-4.528-12.762-0.037-0.407 0.012-0.817 0.142-1.205s0.341-0.743 0.617-1.045c0.276-0.302 0.612-0.543 0.987-0.708s0.78-0.251 1.189-0.251h4.425c0.716-0.007 1.41 0.246 1.952 0.712s0.897 1.113 0.997 1.82c0.187 1.413 0.533 2.801 1.032 4.136 0.198 0.527 0.241 1.099 0.124 1.65s-0.391 1.056-0.787 1.456l-1.873 1.869c2.1 3.685 5.157 6.736 8.849 8.832l1.873-1.869c0.401-0.396 0.907-0.669 1.459-0.786s1.125-0.075 1.653 0.123c1.338 0.498 2.728 0.844 4.144 1.030 0.716 0.101 1.371 0.461 1.838 1.012s0.716 1.254 0.698 1.976z"></path>
</symbol>
<symbol id="icon-ruler" viewBox="0 0 32 32">
<path stroke-linejoin="round" stroke-linecap="round" stroke-miterlimit="4" stroke-width="2" d="M16 20v-4.019"></path>
<path stroke-linejoin="round" stroke-linecap="round" stroke-miterlimit="4" stroke-width="2" d="M21.333 20v-4.019"></path>
<path stroke-linejoin="round" stroke-linecap="round" stroke-miterlimit="4" stroke-width="2" d="M26.667 8h-21.333"></path>
<path stroke-linejoin="round" stroke-linecap="round" stroke-miterlimit="4" stroke-width="2" d="M26.667 10.667v-5.333"></path>
<path stroke-linejoin="round" stroke-linecap="round" stroke-miterlimit="4" stroke-width="2" d="M5.333 10.667v-5.333"></path>
<path stroke-linejoin="round" stroke-linecap="round" stroke-miterlimit="4" stroke-width="2" d="M10.667 20v-4.019"></path>
<path stroke-linejoin="round" stroke-linecap="round" stroke-miterlimit="4" stroke-width="2" d="M26.667 16h-21.333c-0.736 0-1.333 0.597-1.333 1.333v6.667c0 0.736 0.597 1.333 1.333 1.333h21.333c0.736 0 1.333-0.597 1.333-1.333v-6.667c0-0.736-0.597-1.333-1.333-1.333z"></path>
</symbol>
<symbol id="icon-screwdriver" viewBox="0 0 32 32">
<path stroke-linejoin="round" stroke-linecap="round" stroke-miterlimit="4" stroke-width="2" d="M13.333 24c0.354 0 0.693 0.141 0.943 0.391s0.391 0.589 0.391 0.943v2.667c0 0.354-0.141 0.693-0.391 0.943s-0.589 0.391-0.943 0.391h-6.667c-1.061 0-2.078-0.421-2.828-1.172s-1.172-1.768-1.172-2.828c0-0.354 0.14-0.693 0.391-0.943s0.589-0.391 0.943-0.391h9.333z"></path>
<path stroke-linejoin="round" stroke-linecap="round" stroke-miterlimit="4" stroke-width="2" d="M17.333 13.333h-12c-0.707 0-1.386-0.281-1.886-0.781s-0.781-1.178-0.781-1.886v-5.333c0-0.707 0.281-1.386 0.781-1.886s1.178-0.781 1.886-0.781h12c0.354 0 0.693 0.14 0.943 0.391s0.391 0.589 0.391 0.943v8c0 0.354-0.141 0.693-0.391 0.943s-0.589 0.391-0.943 0.391zM17.333 13.333l-1.080 4.323c-0.072 0.289-0.238 0.545-0.473 0.728s-0.523 0.283-0.821 0.283h-4.293"></path>
<path stroke-linejoin="round" stroke-linecap="round" stroke-miterlimit="4" stroke-width="2" d="M18.667 5.333h4c0.354 0 0.693 0.14 0.943 0.391s0.391 0.589 0.391 0.943v2.667c0 0.354-0.141 0.693-0.391 0.943s-0.589 0.391-0.943 0.391h-4"></path>
<path stroke-linejoin="round" stroke-linecap="round" stroke-miterlimit="4" stroke-width="2" d="M24 8h5.333"></path>
<path stroke-linejoin="round" stroke-linecap="round" stroke-miterlimit="4" stroke-width="2" d="M6.667 13.333l-2.667 10.667"></path>
<path stroke-linejoin="round" stroke-linecap="round" stroke-miterlimit="4" stroke-width="2" d="M9.333 24l2.667-10.667"></path>
</symbol>
</defs>
</svg>
